<svg width="296" height="214" viewBox="0 0 296 214" fill="none" xmlns="http://www.w3.org/2000/svg">
<rect x="116.68" y="72.6528" width="65" height="65" rx="32.5" fill="#FF4A17"/>
<rect x="108.555" y="64.5278" width="81.25" height="81.25" rx="40.625" stroke="#FF4A17" stroke-opacity="0.27" stroke-width="16.25"/>
<path d="M164.979 95.674L145.118 115.535L136.09 106.507" stroke="white" stroke-width="5.41667" stroke-linecap="round" stroke-linejoin="round"/>
<path d="M94.681 37.1503C95.0128 36.9552 95.4313 37.1924 95.4344 37.5773L95.5107 47.1033C95.5138 47.4881 95.0991 47.732 94.7642 47.5423L86.4763 42.8454C86.1415 42.6556 86.1376 42.1745 86.4694 41.9794L94.681 37.1503Z" stroke="white"/>
<path d="M50.2181 97.0746C50.5535 97.2635 50.5587 97.7446 50.2274 97.9406L42.0291 102.792C41.6979 102.988 41.2786 102.752 41.2745 102.367L41.1721 92.8415C41.168 92.4566 41.582 92.2116 41.9174 92.4004L50.2181 97.0746Z" stroke="white" stroke-opacity="0.25"/>
<path d="M263.373 94.9986C263.373 95.3835 262.955 95.6232 262.622 95.4301L254.382 90.6502C254.049 90.4571 254.05 89.976 254.384 89.7842L262.643 85.0378C262.977 84.8461 263.393 85.0875 263.393 85.4724L263.373 94.9986Z" stroke="white"/>
<path d="M277.746 143.072L277.746 128.832L290.078 135.952L277.746 143.072Z" stroke="#FF4A17" stroke-width="2"/>
<path d="M23.8454 74.5945C23.8374 74.2097 24.249 73.9605 24.5862 74.146L32.9333 78.7369C33.2705 78.9224 33.2805 79.4034 32.9513 79.6028L24.8019 84.5361C24.4726 84.7354 24.0511 84.5036 24.0431 84.1187L23.8454 74.5945Z" stroke="white" stroke-opacity="0.25"/>
<circle cx="29.8931" cy="130.989" r="4" stroke="#FF4A17" stroke-width="2"/>
<circle cx="202" cy="61.1434" r="4" stroke="#FF4A17" stroke-width="2"/>
<circle cx="71.8936" cy="84.9893" r="4" stroke="#FF4A17" stroke-width="2"/>
<circle cx="169.894" cy="5.98926" r="4" stroke="white" stroke-opacity="0.25" stroke-width="2"/>
<circle cx="69" cy="203.143" r="4" stroke="white" stroke-opacity="0.25" stroke-width="2"/>
<circle cx="242.894" cy="154.989" r="4" stroke="white" stroke-width="2"/>
<circle cx="55.8931" cy="85.9893" r="3" fill="white" fill-opacity="0.25"/>
<circle cx="21.8931" cy="152.989" r="3" fill="white" fill-opacity="0.25"/>
<circle cx="120.894" cy="82.9893" r="3" fill="white" fill-opacity="0.25"/>
<circle cx="16.8936" cy="44.9893" r="3" fill="white" fill-opacity="0.25"/>
<circle cx="207" cy="164.143" r="3" fill="white" fill-opacity="0.25"/>
<circle cx="227.894" cy="118.989" r="4" fill="white" fill-opacity="0.25"/>
<circle cx="275.894" cy="113.989" r="3" fill="white" fill-opacity="0.25"/>
<circle cx="272.894" cy="61.9893" r="3" fill="white" fill-opacity="0.25"/>
<circle cx="237.894" cy="26.9893" r="3" fill="white" fill-opacity="0.25"/>
<circle cx="229.894" cy="184.989" r="3" fill="white"/>
<circle cx="65.8931" cy="180.989" r="3" fill="white" fill-opacity="0.25"/>
<circle cx="132.894" cy="210.989" r="3" fill="white" fill-opacity="0.25"/>
<path d="M50.8936 20.9893L52.8785 25.8433L56.0897 29.9893L50.8936 29.2813L45.6974 29.9893L48.9086 25.8433L50.8936 20.9893Z" fill="white"/>
<path d="M177.914 59.1575L172.794 60.2935L168.165 62.7578L169.741 57.756L169.921 52.515L173.465 56.3807L177.914 59.1575Z" fill="white" fill-opacity="0.25"/>
<path d="M77 109.143L78.9849 113.997L82.1962 118.143L77 117.435L71.8038 118.143L75.0151 113.997L77 109.143Z" fill="white" fill-opacity="0.25"/>
<path d="M126.416 45.2976L132.23 49.9226L139.069 52.8235L132.157 55.5461L126.225 60.0188L127.323 52.6712L126.416 45.2976Z" fill="#FF4A17"/>
<path d="M19.166 23.6703L14.0165 29.0253L10.4873 35.5628L8.42456 28.4257L4.5275 22.1006L11.7398 23.8828L19.166 23.6703Z" fill="#FF4A17"/>
<path d="M272.52 18.9959L266.771 23.7014L262.49 29.7734L261.29 22.4418L258.172 15.6986L265.121 18.3248L272.52 18.9959Z" fill="#FF4A17"/>
<path d="M259.749 132.702L261.001 140.025L264.166 146.746L257.198 144.169L249.795 143.549L255.511 138.804L259.749 132.702Z" fill="#FF4A17"/>
<path d="M229.154 74.7395L235.877 77.9013L243.2 79.1492L237.101 83.3905L232.358 89.109L231.735 81.706L229.154 74.7395Z" fill="white" fill-opacity="0.25"/>
<path d="M197.106 188.585L198.917 195.79L202.59 202.248L195.444 200.214L188.015 200.165L193.35 194.994L197.106 188.585Z" fill="white" fill-opacity="0.25"/>
<path d="M17.0819 182.766L21.3012 178.78L24.3003 173.811L25.6424 179.458L28.4463 184.54L22.8849 182.879L17.0819 182.766Z" fill="white"/>
<path d="M51.7835 129.482L57.0358 131.952L62.7574 132.927L57.9921 136.24L54.287 140.708L53.8 134.924L51.7835 129.482Z" fill="white" fill-opacity="0.25"/>
</svg>
